<svg id="图层_1" data-name="图层 1" xmlns="http://www.w3.org/2000/svg" viewBox="0 0 17.78102 18.07593"><defs><style>.cls-1{fill:#fff;}</style></defs><title>商城ICON</title><path class="cls-1" d="M6.34074,13.74519a1.76516,1.76516,0,1,0,1.76517,1.76517,1.76519,1.76519,0,0,0-1.76517-1.76517Zm0,2.74581a.98065.98065,0,1,1,.98066-.98073.98072.98072,0,0,1-.98066.98073ZM3.41238,3.154,3.00658.80042H.653V1.585h1.6367L4.18338,12.56846H15.16673V11.784H4.9003L4.688,10.553,15.16666,9.43037,17.128,3.93864V3.154ZM14.77444,8.64577,4.555,9.78124,3.54758,3.93864H16.22274Zm-1.76517,5.09942a1.76516,1.76516,0,1,0,1.76517,1.76517,1.76521,1.76521,0,0,0-1.76517-1.76517Zm0,2.74581a.98065.98065,0,1,1,.98066-.98073.98075.98075,0,0,1-.98066.98073Zm0,0"/></svg>