<svg id="图层_1" data-name="图层 1" xmlns="http://www.w3.org/2000/svg" viewBox="0 0 62 33"><defs><style>.cls-1{fill:#030000;}.cls-2{fill:#c0bfbf;}.cls-3{fill:#d1d1d1;}</style></defs><title>商城ICON</title><path class="cls-1" d="M46.88222,32.34322H15.26384a.16551.16551,0,0,1-.16551-.16519L15.03187.79681A.16556.16556,0,0,1,15.19738.631H46.88222a.1655.1655,0,0,1,.16551.16551V32.17771A.1655.1655,0,0,1,46.88222,32.34322ZM15.429,32.0122H46.71671V.962H15.36322Z"/><path class="cls-1" d="M21.473,4.37156a.76136.76136,0,1,1,.76136-.76136A.76225.76225,0,0,1,21.473,4.37156Zm0-1.3241a.56274.56274,0,1,0,.56274.56274A.56341.56341,0,0,0,21.473,3.04746Z"/><path class="cls-1" d="M23.9223,4.37156a.76136.76136,0,1,1,.76136-.76136A.76225.76225,0,0,1,23.9223,4.37156Zm0-1.3241a.56274.56274,0,1,0,.56274.56274A.56341.56341,0,0,0,23.9223,3.04746Z"/><path class="cls-1" d="M26.37163,4.37156A.76136.76136,0,1,1,27.133,3.6102.76225.76225,0,0,1,26.37163,4.37156Zm0-1.3241a.56274.56274,0,1,0,.56274.56274A.56341.56341,0,0,0,26.37163,3.04746Z"/><path class="cls-1" d="M35.77353,4.37156a.76136.76136,0,1,1,.76136-.76136A.76225.76225,0,0,1,35.77353,4.37156Zm0-1.3241a.56274.56274,0,1,0,.56274.56274A.56341.56341,0,0,0,35.77353,3.04746Z"/><path class="cls-1" d="M38.22286,4.37156a.76136.76136,0,1,1,.76136-.76136A.76225.76225,0,0,1,38.22286,4.37156Zm0-1.3241a.56274.56274,0,1,0,.56274.56274A.56341.56341,0,0,0,38.22286,3.04746Z"/><path class="cls-1" d="M40.67219,4.37156a.76136.76136,0,1,1,.76136-.76136A.76225.76225,0,0,1,40.67219,4.37156Zm0-1.3241a.56274.56274,0,1,0,.56274.56274A.56341.56341,0,0,0,40.67219,3.04746Z"/><rect class="cls-2" x="28.18615" y="2.82091" width="5.70729" height="1.57858"/><path d="M33.89341,4.4988H28.18613a.09933.09933,0,0,1-.09931-.09931V2.82091a.09933.09933,0,0,1,.09931-.09931h5.70728a.09933.09933,0,0,1,.09931.09931V4.39949A.09933.09933,0,0,1,33.89341,4.4988Zm-5.608-.19862H33.7941v-1.38H28.28543Z"/><rect class="cls-1" x="15.20937" y="6.26032" width="31.67285" height="0.39723"/><rect class="cls-1" x="15.23047" y="18.37206" width="31.65174" height="0.39723"/><path class="cls-1" d="M43.62142,10.17194H18.59589a.1655.1655,0,0,1-.16551-.16551V8.25562a.1655.1655,0,0,1,.16551-.16551H43.62142a.1655.1655,0,0,1,.16551.16551v1.75082A.1655.1655,0,0,1,43.62142,10.17194Zm-24.86-.331H43.45591V8.42113H18.7614Z"/><rect class="cls-3" x="18.5959" y="10.00645" width="25.02554" height="7.19177"/><path d="M43.62142,17.36373H18.59589a.1655.1655,0,0,1-.16551-.16551V10.00643a.1655.1655,0,0,1,.16551-.16551H43.62142a.1655.1655,0,0,1,.16551.16551v7.19179A.1655.1655,0,0,1,43.62142,17.36373Zm-24.86-.331H43.45591V10.17194H18.7614Z"/><rect class="cls-3" x="18.5959" y="22.24696" width="25.02554" height="7.19177"/><path d="M43.62142,29.60425H18.59589a.1655.1655,0,0,1-.16551-.16551V22.24694a.1655.1655,0,0,1,.16551-.16551H43.62142a.1655.1655,0,0,1,.16551.16551v7.19179A.1655.1655,0,0,1,43.62142,29.60425Zm-24.86-.331H43.45591V22.41246H18.7614Z"/><path class="cls-1" d="M43.62142,22.41246H18.59589a.1655.1655,0,0,1-.16551-.16551V20.49613a.1655.1655,0,0,1,.16551-.16551H43.62142a.1655.1655,0,0,1,.16551.16551v1.75082A.1655.1655,0,0,1,43.62142,22.41246Zm-24.86-.331H43.45591V20.66164H18.7614Z"/></svg>