<svg id="图层_1" data-name="图层 1" xmlns="http://www.w3.org/2000/svg" viewBox="0 0 62 33"><defs><style>.cls-1{fill:#5e5e5e;}</style></defs><title>商城ICON</title><path class="cls-1" d="M33.65469,27.35675a1.10049,1.10049,0,0,1-1.10082-1.10082V24.70829a1.10085,1.10085,0,0,1,2.2017,0v1.54764A1.10121,1.10121,0,0,1,33.65469,27.35675Z"/><path class="cls-1" d="M28.34524,27.35675a1.10081,1.10081,0,0,1-1.10082-1.10082V24.70829a1.10082,1.10082,0,1,1,2.20164,0v1.54764A1.10084,1.10084,0,0,1,28.34524,27.35675Z"/><path d="M27.96964,20.99756l.00157-.00038a.18894.18894,0,0,0,.08948-.05575.23749.23749,0,0,0,.061-.16907.24883.24883,0,0,0-.07428-.18873.27946.27946,0,0,0-.19948-.07157h-.6035v.1131h.512c.10343,0,.12366.059.12366.12791a.11409.11409,0,0,1-.11245.126h-.52325v.54351h.23841l.00032-.41221h.19274l.17876.37173.00145.00246a.0915.0915,0,0,0,.074.038h.21761l-.20386-.41955Z"/><path d="M29.035,20.58192a.27919.27919,0,0,0-.19955-.06985h-.35271a.27877.27877,0,0,0-.19952.06985.24294.24294,0,0,0-.07359.16812l-.00057.00734,0,.38853h-.00049l.00044.02416a.24738.24738,0,0,0,.07412.18263.279.279,0,0,0,.19951.06985h.35284a.27933.27933,0,0,0,.1996-.06987.248.248,0,0,0,.074-.18252l.00009-.41483-.00069-.00583A.2432.2432,0,0,0,29.035,20.58192Zm-.16739.152v.46682c0,.06888-.0202.10874-.12358.10874h-.16993c-.10133,0-.122-.0372-.12362-.10125v-.47432c0-.06888.02024-.10875.12366-.10875H28.744C28.84742,20.62517,28.86761,20.665,28.86761,20.73392Z"/><path d="M32.05428,20.51208h-.12484l-.30414.56606-.27594-.51838a.08818.08818,0,0,0-.07674-.04768h-.147v.91047H31.242a.04443.04443,0,0,0,.04248-.04583v-.4956l.30309.54143.31508-.57283v.57283h.24256v-.80814a.1118.1118,0,0,0-.014-.0547A.08864.08864,0,0,0,32.05428,20.51208Z"/><path d="M29.966,20.937a.19268.19268,0,0,0,.11128-.21348.21074.21074,0,0,0-.1453-.18658.31664.31664,0,0,0-.10621-.024l-.01805-.0009-.06324-.00046.00085.00046H29.2065v.91047H29.79l.014-.00029.00339,0c.13961,0,.30265-.06713.30265-.25636A.23873.23873,0,0,0,29.966,20.937Zm-.23039-.08511h-.30846v-.22672h.30971a.11165.11165,0,0,1,.10242.11409A.1091.1091,0,0,1,29.73559,20.85189Zm-.30846.18894h.31418a.13192.13192,0,0,1,.10769.14093.12251.12251,0,0,1-.09734.12773h-.32454Z"/><path d="M30.82965,21.42255h.24522l-.39089-.858-.00165-.00286a.08884.08884,0,0,0-.07678-.048H30.5507l-.42341.90886h.132l.00213-.00057a.08422.08422,0,0,0,.05474-.04474l.00882-.01976.04248-.09136H30.76Zm-.26073-.58924.115.26038h-.23531Z"/><path d="M33.98443,20.91421a.097.097,0,0,0-.02414-.06981l.00029-.00024-.10279-.09791v-.07448h.12664v-.09165h-.12664l0-.02243a.0472.0472,0,0,0-.04362-.04561h-.11289v.068H33.583v.09165h.11822v.14111a.09462.09462,0,0,1-.02.05514l-.09819.116v.16171l.11822-.143v.37043a.04877.04877,0,0,0,.04362.04946h.11292v-.489l.12664.12335Z"/><path d="M33.28432,20.56806l-.01157.01046h-.30717v-.01308l-.00036-.01378-.00136.00081a.04672.04672,0,0,0-.04261-.04039h-.152v.06645h-.34075v.1001h.34075v.16118l-.39919.0006V20.943h.34533c-.11015.054-.20353.09758-.26718.12724-.03873.0181-.06437.03-.07388.03513l-.00428.00228v.14455l.0116-.00561.13289-.06437v.10768l.00024.00807v.00834c0,.061.0352.11528.08425.11528H33.273c.09558,0,.13939-.04788.13939-.11213h-.14727l-.54236-.00032a.0326.0326,0,0,1-.02762-.03273l.00038-.18327c.11313-.05659.20479-.10435.28787-.15014h.4311c.03523-.00164.05628-.01947.05639-.04873V20.8398h-.31245a.96474.96474,0,0,0,.31225-.29657l-.12817,0A.08432.08432,0,0,0,33.28432,20.56806Zm-.13289.11056a1.91856,1.91856,0,0,1-.18585.13334v-.13334Z"/><path d="M32.82141,21.07523l-.00129-.00006a.0446.0446,0,0,0-.038.04214v.06136H33.168a.20854.20854,0,0,0,.152-.06219l.03208-.04126Z"/><path d="M34.54928,21.1689a.5383.5383,0,0,0,.1663-.33992l.00041-.03525a.04877.04877,0,0,0-.04265-.05058h-.4952v-.118h.54461v-.06271a.04909.04909,0,0,0-.04159-.05038l-.65111-.0001.00008.50361a.78082.78082,0,0,1-.16848.407l.11134.0002.00124-.00008a.11489.11489,0,0,0,.0817-.05067.55882.55882,0,0,0,.12221-.3327v-.0717l.17154.208a3.545,3.545,0,0,1-.323.247h.16574a.25055.25055,0,0,0,.09016-.02759,1.14857,1.14857,0,0,0,.15163-.11679l.08911.10842.01157.01284a.06282.06282,0,0,0,.04668.02292l.174.0005Zm-.22929-.25-.14184.00049v-.07642h.3644c.00359,0,.00959.00161.00959.01229v.009a.34515.34515,0,0,1-.08827.19957l-.02338-.0295-.05549-.0681-.02121-.02543a.05653.05653,0,0,0-.04372-.02187Z"/><path d="M54.71375,29.32093H7.28625a.23917.23917,0,0,1-.23916-.23916V3.89242a.23917.23917,0,0,1,.23916-.23916H54.71375a.23917.23917,0,0,1,.23916.23916V29.08177A.23917.23917,0,0,1,54.71375,29.32093ZM7.52541,28.84261H54.47459V4.13158H7.52541Z"/><path d="M19.02833,18.94316a4.69387,4.69387,0,1,1,4.69387-4.69387A4.69911,4.69911,0,0,1,19.02833,18.94316Zm0-9.14857A4.45471,4.45471,0,1,0,23.483,14.24929,4.45975,4.45975,0,0,0,19.02833,9.79459Z"/><path d="M25.03548,14.41909H20.93811a.17937.17937,0,0,1,0-.35874h4.09737a.17937.17937,0,1,1,0,.35874Z"/><path d="M17.109,14.41909H13.01161a.17937.17937,0,0,1,0-.35874H17.109a.17937.17937,0,0,1,0,.35874Z"/><path d="M19.02833,20.44538A.17942.17942,0,0,1,18.849,20.266V16.16678a.17937.17937,0,1,1,.35874,0V20.266A.17942.17942,0,0,1,19.02833,20.44538Z"/><path d="M19.02833,12.51118a.17942.17942,0,0,1-.17937-.17937V8.23257a.17937.17937,0,1,1,.35874,0v4.09924A.17942.17942,0,0,1,19.02833,12.51118Z"/><path d="M19.02647,17.16954a2.92025,2.92025,0,1,1,2.92025-2.92025A2.92355,2.92355,0,0,1,19.02647,17.16954Zm0-5.60134a2.68109,2.68109,0,1,0,2.68109,2.68109A2.68411,2.68411,0,0,0,19.02647,11.5682Z"/><path d="M42.98124,18.94316a4.69387,4.69387,0,1,1,4.69387-4.69387A4.69912,4.69912,0,0,1,42.98124,18.94316Zm0-9.14857a4.45471,4.45471,0,1,0,4.45471,4.45471A4.4598,4.4598,0,0,0,42.98124,9.79459Z"/><path d="M48.98839,14.41909H44.891a.17937.17937,0,0,1,0-.35874h4.09737a.17937.17937,0,1,1,0,.35874Z"/><path d="M41.06189,14.41909H36.96452a.17937.17937,0,1,1,0-.35874h4.09737a.17937.17937,0,0,1,0,.35874Z"/><path d="M42.98124,20.44538a.17942.17942,0,0,1-.17937-.17937V16.16678a.17937.17937,0,1,1,.35874,0V20.266A.17942.17942,0,0,1,42.98124,20.44538Z"/><path d="M42.98124,12.51118a.17942.17942,0,0,1-.17937-.17937V8.23257a.17937.17937,0,0,1,.35874,0v4.09924A.17942.17942,0,0,1,42.98124,12.51118Z"/><path d="M42.97937,17.16954a2.92025,2.92025,0,1,1,2.92025-2.92025A2.92355,2.92355,0,0,1,42.97937,17.16954Zm0-5.60134a2.68109,2.68109,0,1,0,2.68109,2.68109A2.68407,2.68407,0,0,0,42.97937,11.5682Z"/></svg>