<svg id="图层_1" data-name="图层 1" xmlns="http://www.w3.org/2000/svg" viewBox="0 0 62 33"><defs><style>.cls-1{fill:none;stroke:#030000;stroke-linecap:round;stroke-miterlimit:10;stroke-width:0.5px;}</style></defs><title>商城ICON</title><path class="cls-1" d="M27.29293,27.38281,11.19557,21.95116a.10962.10962,0,0,1-.07457-.10386V17.62549a.10962.10962,0,0,1,.14466-.10386L27.363,22.95327a.10962.10962,0,0,1,.07457.10386v4.22181A.10962.10962,0,0,1,27.29293,27.38281Z"/><path class="cls-1" d="M50.85131,14.80169,27.45679,27.3823a.05261.05261,0,0,1-.07753-.04634V23.03447a.05261.05261,0,0,1,.02769-.04634L50.80148,10.40752a.05261.05261,0,0,1,.07753.04634v4.30149A.05261.05261,0,0,1,50.85131,14.80169Z"/><path class="cls-1" d="M11.121,17.47281,35.37786,5.61831a.06848.06848,0,0,1,.05021-.00392l15.44215,4.75239"/></svg>