<svg id="图层_1" data-name="图层 1" xmlns="http://www.w3.org/2000/svg" viewBox="0 0 30 30"><defs><style>.cls-1{fill:#3e3a39;}</style></defs><title>商城ICON</title><path class="cls-1" d="M26.388,23.86279H19.669l-3.65339,3.91972a1.4263,1.4263,0,0,1-2.02137-.00146l-3.67045-3.91826h-6.712A1.92493,1.92493,0,0,1,1.4766,21.99518V3.9308A2.13113,2.13113,0,0,1,3.61182,1.79833H26.388A2.13451,2.13451,0,0,1,28.5234,3.9308V21.99518A1.92234,1.92234,0,0,1,26.388,23.86279Zm-7.5161-.9509.50325-.4726H26.388c.39586,0,.71173-.052.71173-.44411V3.9308a.71114.71114,0,0,0-.71173-.709H3.61182a.70781.70781,0,0,0-.71173.709V21.99518c0,.39.31879.44411.71173.44411h7.023l.50321.4726,3.87055,3.86334Zm-4.58374-4.03132a.71175.71175,0,0,1,1.4235-.00083V19.593a.71175.71175,0,0,1-1.4235,0v-.7124Zm2.23348-3.86208q-.21263.08064-.417.18083a.69037.69037,0,0,0-.40566.63487,1.88693,1.88693,0,0,1-.02573.36508.6987.6987,0,0,1-.73879.54312.7088.7088,0,0,1-.65259-.694,2.12771,2.12771,0,0,1,1.28829-2.16863,4.082,4.082,0,0,1,.3758-.16244,2.83307,2.83307,0,1,0-3.79657-2.73882,1.17163,1.17163,0,0,1-.03195.27758.70807.70807,0,0,1-1.388-.21778,4.088,4.088,0,0,1,1.03919-2.76521,4.06673,4.06673,0,0,1,4.25486-1.34367,4.09881,4.09881,0,0,1,3.12667,3.23993,8.52025,8.52025,0,0,1,.1204.88818,4.30249,4.30249,0,0,1-2.74891,3.96092Zm0,0"/></svg>