<svg id="图层_1" data-name="图层 1" xmlns="http://www.w3.org/2000/svg" viewBox="0 0 30 30"><defs><style>.cls-1{fill:#3e3a39;}</style></defs><title>商城ICON</title><path class="cls-1" d="M19.79382,27.32765H6.28152a2.00767,2.00767,0,0,1-2.0072-2.0026V4.67576a2.00784,2.00784,0,0,1,2.0072-2.00341H23.71839a2.00778,2.00778,0,0,1,2.0073,2.00341V20.71822a.58.58,0,0,1-.14661.38412l-5.35271,6.03178a.579.579,0,0,1-.43254.19353ZM6.28152,3.82867a.85031.85031,0,0,0-.85124.84676V25.32457a.84979.84979,0,0,0,.85124.84676H19.53458l5.0342-5.67331V4.67576a.8495.8495,0,0,0-.8504-.84664H6.28152ZM20.70677,8.69883H9.61926a.87373.87373,0,0,1,0-1.74745H20.70677a.87373.87373,0,0,1,0,1.74745Zm0,4.74333H9.61926a.87374.87374,0,0,1,0-1.74748H20.70677a.87374.87374,0,0,1,0,1.74748ZM15.563,18.25274H9.61926a.87373.87373,0,0,1,0-1.74745H15.563a.87373.87373,0,0,1,0,1.74745ZM19.115,27.26523a.579.579,0,0,1-.57822-.57822V21.3263a1.95284,1.95284,0,0,1,1.89268-2.00293h4.65433a.578.578,0,1,1,0,1.156H20.42989a.79883.79883,0,0,0-.736.84709v5.361a.57876.57876,0,0,1-.57894.57777Zm0,0"/></svg>