<svg id="图层_1" data-name="图层 1" xmlns="http://www.w3.org/2000/svg" viewBox="0 0 16 16"><defs><style>.cls-1{fill:none;stroke:#fff;stroke-linecap:round;stroke-linejoin:round;stroke-width:0.5px;}.cls-2{fill:#fff;}</style></defs><title>商城ICON</title><path class="cls-1" d="M3.79525,15.26426l3.48549-3.48552a.609.609,0,0,1,.44258-.17705h7.28094a.31663.31663,0,0,0,.3098-.30983V1.04557a.31661.31661,0,0,0-.3098-.30983H.99577a.31661.31661,0,0,0-.30983.30983V11.28079a.31661.31661,0,0,0,.30983.3098H3.65143"/><path class="cls-2" d="M4.59924,6.776h-1.104a.552.552,0,1,1,0-1.104h1.104a.552.552,0,0,1,0,1.104Zm0,0"/><path class="cls-2" d="M8.552,6.776H7.448a.552.552,0,1,1,0-1.104H8.552a.552.552,0,0,1,0,1.104Zm0,0"/><path class="cls-2" d="M12.50479,6.776h-1.104a.552.552,0,1,1,0-1.104h1.104a.552.552,0,0,1,0,1.104Zm0,0"/></svg>