<svg id="图层_1" data-name="图层 1" xmlns="http://www.w3.org/2000/svg" xmlns:xlink="http://www.w3.org/1999/xlink" viewBox="0 0 62 33"><defs><style>.cls-1{fill:none;}.cls-2{fill:#d1d1d1;stroke:#030000;stroke-linecap:round;stroke-linejoin:round;stroke-width:0.37px;}.cls-3{fill:#fff;}.cls-4{fill:#030000;}.cls-5{clip-path:url(#clip-path);}</style><clipPath id="clip-path"><rect class="cls-1" x="34.02694" y="4.91275" width="24.33302" height="25.70343"/></clipPath></defs><title>商城ICON</title><rect class="cls-2" x="21.1547" y="24.96419" width="8.49784" height="4.17657"/><circle class="cls-3" cx="22.56432" cy="27.05716" r="0.49722"/><circle class="cls-3" cx="24.3626" cy="27.05716" r="0.49722"/><circle class="cls-3" cx="26.37994" cy="27.05716" r="0.49722"/><circle class="cls-3" cx="28.23792" cy="27.05716" r="0.49722"/><path d="M25.32453,30.59038H3.84536A.20533.20533,0,0,1,3.64,30.38506V26.73879a.20521.20521,0,0,1,.15865-.1999l12.98955-3.03314L16.78032,2.58923a.20537.20537,0,0,1,.20532-.20542h16.836a.20533.20533,0,0,1,.20532.20532V23.754a.20532.20532,0,0,1-.41063,0V2.79445H17.19105L17.199,23.66856a.20527.20527,0,0,1-.1586.2L4.05067,26.9017v3.278H25.32453a.20532.20532,0,0,1,0,.41063Z"/><path d="M46.98546,30.59038H25.12131c-.11339,0,.17966-.09193.17966-.20532s-.23958-.20532-.1262-.20532H46.78015v-3.277l-12.9885-2.94852a.20529.20529,0,1,1,.09083-.40041l13.1484,2.98481a.20535.20535,0,0,1,.1599.2002v3.64628A.20533.20533,0,0,1,46.98546,30.59038Z"/><path d="M23.57388,17.73286l.001-.00024a.12048.12048,0,0,0,.05706-.03555.15144.15144,0,0,0,.03889-.10781.15867.15867,0,0,0-.04737-.12035.17821.17821,0,0,0-.1272-.04564h-.38484v.07212h.32652c.066,0,.07885.03764.07885.08157a.07275.07275,0,0,1-.07171.08032h-.33367v.34658h.152l.00021-.26286h.12291l.114.237.00092.00157a.05835.05835,0,0,0,.04719.02424h.13877l-.13-.26754Z"/><path d="M24.25324,17.46782a.178.178,0,0,0-.12725-.04454h-.22492a.17776.17776,0,0,0-.12723.04454.15492.15492,0,0,0-.04693.10721l-.00036.00468,0,.24776h-.00031l.00028.01541a.15775.15775,0,0,0,.04727.11646.17793.17793,0,0,0,.12722.04454h.225a.17812.17812,0,0,0,.12728-.04456.15817.15817,0,0,0,.04721-.11639l.00005-.26453-.00044-.00372A.15509.15509,0,0,0,24.25324,17.46782Zm-.10674.09693v.29768c0,.04393-.01288.06934-.07881.06934h-.10836c-.06462,0-.07783-.02372-.07883-.06456v-.30246c0-.04392.01291-.06935.07885-.06935h.10834C24.13362,17.4954,24.1465,17.52082,24.1465,17.56475Z"/><path d="M26.17857,17.42328H26.099l-.19394.361-.176-.33056a.05623.05623,0,0,0-.04893-.0304h-.09377v.58059h.07423a.02833.02833,0,0,0,.02709-.02922v-.316l.19327.34526.20092-.36528v.36528h.15468v-.51533a.07129.07129,0,0,0-.00894-.03488A.05652.05652,0,0,0,26.17857,17.42328Z"/><path d="M24.84691,17.69424a.12286.12286,0,0,0,.071-.13613.13438.13438,0,0,0-.09265-.119.20191.20191,0,0,0-.06773-.01528l-.01151-.00058-.04033-.00029.00054.00029H24.3626v.58059h.37212l.00892-.00018h.00216c.089,0,.193-.04281.193-.16348A.15223.15223,0,0,0,24.84691,17.69424ZM24.7,17.64h-.1967V17.4954h.19749a.07119.07119,0,0,1,.06531.07275A.06957.06957,0,0,1,24.7,17.64Zm-.1967.12048h.20035a.08412.08412,0,0,1,.06867.08987.07812.07812,0,0,1-.06207.08145h-.207Z"/><path d="M25.39766,18.00387H25.554l-.24926-.54715-.00105-.00183a.05665.05665,0,0,0-.049-.03059h-.035l-.27.57956h.08415l.00136-.00036a.0537.0537,0,0,0,.03491-.02853l.00563-.0126.02709-.05826h.25036Zm-.16626-.37574.0733.166h-.15Z"/><path d="M27.40939,17.67971a.06183.06183,0,0,0-.0154-.04452l.00018-.00015-.06555-.06243v-.04749h.08076v-.05845h-.08076l0-.0143a.0301.0301,0,0,0-.02781-.02908h-.072v.04339h-.07539v.05845h.07539v.09a.06034.06034,0,0,1-.01278.03516l-.06261.07394v.10312l.07539-.09121v.23622a.0311.0311,0,0,0,.02781.03154h.072v-.31181l.08076.07866Z"/><path d="M26.96295,17.459l-.00738.00667h-.19588v-.00834l-.00023-.00879-.00087.00052a.02979.02979,0,0,0-.02717-.02575H26.6345v.04237h-.21729v.06383h.21729v.10278l-.25456.00038v.06544h.22021c-.07024.03446-.12979.06223-.17038.08114l-.04711.0224-.00273.00145v.09218l.0074-.00357.08474-.041v.06866l.00015.00514v.00532c0,.03889.02245.07351.05373.07351h.42976c.06095,0,.08888-.03053.08888-.07151h-.09391l-.34585-.00021a.02079.02079,0,0,1-.01761-.02087l.00024-.11686c.07214-.03609.13059-.06654.18357-.09574h.27491c.02247-.001.03589-.01241.036-.03107v-.03475h-.19924a.6152.6152,0,0,0,.19911-.18912l-.08173,0A.05377.05377,0,0,0,26.96295,17.459Zm-.08474.0705a1.22342,1.22342,0,0,1-.11851.085v-.085Z"/><path d="M26.66776,17.78239l-.00083,0a.02844.02844,0,0,0-.02421.02687v.03913h.246a.133.133,0,0,0,.0969-.03966l.02046-.02631Z"/><path d="M27.76958,17.84212a.34326.34326,0,0,0,.106-.21676l.00026-.02248a.0311.0311,0,0,0-.02719-.03226h-.31578V17.4954h.34729v-.04a.0313.0313,0,0,0-.02652-.03213l-.4152-.00007.00005.32114a.49791.49791,0,0,1-.10744.25951l.071.00012.00079,0a.07327.07327,0,0,0,.0521-.03231.35635.35635,0,0,0,.07793-.21216v-.04572l.10938.13263a2.26054,2.26054,0,0,1-.20595.15748H27.542a.15977.15977,0,0,0,.05749-.01759.73242.73242,0,0,0,.09669-.07447l.05682.06914.00738.00819a.04006.04006,0,0,0,.02977.01461l.11093.00032Zm-.14621-.15943-.09045.00031v-.04873h.23237c.00229,0,.00612.001.00612.00784v.00572a.22009.22009,0,0,1-.05629.12726l-.01491-.01881-.03539-.04343-.01353-.01622a.036.036,0,0,0-.02788-.01394Z"/><path class="cls-4" d="M22.56932,27.654a.60148.60148,0,1,1,.60148-.60148A.60217.60217,0,0,1,22.56932,27.654Zm0-1.04605a.44457.44457,0,1,0,.44457.44457A.44509.44509,0,0,0,22.56932,26.6079Z"/><path class="cls-4" d="M24.3626,27.654a.60148.60148,0,1,1,.60148-.60148A.60217.60217,0,0,1,24.3626,27.654Zm0-1.04605a.44457.44457,0,1,0,.44457.44457A.44509.44509,0,0,0,24.3626,26.6079Z"/><path class="cls-4" d="M26.37994,27.654a.60148.60148,0,1,1,.60148-.60148A.60217.60217,0,0,1,26.37994,27.654Zm0-1.04605a.44457.44457,0,1,0,.44457.44457A.44509.44509,0,0,0,26.37994,26.6079Z"/><path class="cls-4" d="M28.23792,27.654a.60148.60148,0,1,1,.60148-.60148A.60217.60217,0,0,1,28.23792,27.654Zm0-1.04605a.44457.44457,0,1,0,.44457.44457A.44509.44509,0,0,0,28.23792,26.6079Z"/><path d="M33.82162,30.59038h-16.836a.1619.1619,0,0,1-.154-.16872V23.6834a.177.177,0,0,1,.04541-.11962.13591.13591,0,0,1,.10938-.0491l16.836.09348a.162.162,0,0,1,.15319.16872v6.64478A.1619.1619,0,0,1,33.82162,30.59038Zm-16.682-.33744h16.528V23.94472l-16.528-.09172Z"/><g class="cls-5"><path d="M57.76491,30.61618H10.33742a.23917.23917,0,0,1-.23916-.23916V5.18768a.23917.23917,0,0,1,.23916-.23916H57.76491a.23917.23917,0,0,1,.23916.23916V30.377A.23917.23917,0,0,1,57.76491,30.61618Zm-47.18833-.47832H57.52575V5.42684H10.57658Z"/><path d="M22.0795,20.23841a4.69387,4.69387,0,1,1,4.69387-4.69387A4.69911,4.69911,0,0,1,22.0795,20.23841Zm0-9.14857a4.45471,4.45471,0,1,0,4.45471,4.45471A4.45975,4.45975,0,0,0,22.0795,11.08984Z"/><path d="M28.08664,15.71434H23.98927a.17937.17937,0,1,1,0-.35874h4.09737a.17937.17937,0,1,1,0,.35874Z"/><path d="M20.16014,15.71434H16.06278a.17937.17937,0,0,1,0-.35874h4.09737a.17937.17937,0,0,1,0,.35874Z"/><path d="M22.0795,21.74064a.17942.17942,0,0,1-.17937-.17937V17.462a.17937.17937,0,1,1,.35874,0v4.09924A.17942.17942,0,0,1,22.0795,21.74064Z"/><path d="M22.0795,13.80643a.17942.17942,0,0,1-.17937-.17937V9.52783a.17937.17937,0,1,1,.35874,0v4.09924A.17942.17942,0,0,1,22.0795,13.80643Z"/><path d="M22.07763,18.4648a2.92025,2.92025,0,1,1,2.92025-2.92025A2.92355,2.92355,0,0,1,22.07763,18.4648Zm0-5.60134a2.68109,2.68109,0,1,0,2.68109,2.68109A2.68411,2.68411,0,0,0,22.07763,12.86346Z"/><path d="M46.03241,20.23841a4.69387,4.69387,0,1,1,4.69387-4.69387A4.69912,4.69912,0,0,1,46.03241,20.23841Zm0-9.14857a4.45471,4.45471,0,1,0,4.45471,4.45471A4.4598,4.4598,0,0,0,46.03241,11.08984Z"/><path d="M52.03955,15.71434H47.94218a.17937.17937,0,0,1,0-.35874h4.09737a.17937.17937,0,1,1,0,.35874Z"/><path d="M44.11305,15.71434H40.01568a.17937.17937,0,1,1,0-.35874h4.09737a.17937.17937,0,1,1,0,.35874Z"/><path d="M46.03241,21.74064a.17942.17942,0,0,1-.17937-.17937V17.462a.17937.17937,0,1,1,.35874,0v4.09924A.17942.17942,0,0,1,46.03241,21.74064Z"/><path d="M46.03241,13.80643a.17942.17942,0,0,1-.17937-.17937V9.52783a.17937.17937,0,0,1,.35874,0v4.09924A.17942.17942,0,0,1,46.03241,13.80643Z"/><path d="M46.03054,18.4648a2.92025,2.92025,0,1,1,2.92025-2.92025A2.92355,2.92355,0,0,1,46.03054,18.4648Zm0-5.60134a2.68109,2.68109,0,1,0,2.68109,2.68109A2.68407,2.68407,0,0,0,46.03054,12.86346Z"/></g></svg>