<svg id="图层_1" data-name="图层 1" xmlns="http://www.w3.org/2000/svg" xmlns:xlink="http://www.w3.org/1999/xlink" viewBox="0 0 62 33"><defs><style>.cls-1{fill:none;}.cls-2{clip-path:url(#clip-path);}.cls-3,.cls-4{fill:#030000;}.cls-3,.cls-7{stroke:#030000;}.cls-3{stroke-miterlimit:10;stroke-width:0.15px;}.cls-5{fill:#c0bfbf;}.cls-6,.cls-7{fill:#d1d1d1;}.cls-7{stroke-linecap:round;stroke-linejoin:round;stroke-width:0.37px;}.cls-8{fill:#fff;}.cls-9{clip-path:url(#clip-path-2);}</style><clipPath id="clip-path"><polygon class="cls-1" points="0.276 30.778 7.524 30.778 7.524 26.491 20.596 23.415 20.596 3.014 0.276 3.014 0.276 30.778"/></clipPath><clipPath id="clip-path-2"><rect class="cls-1" x="37.63912" y="4.72537" width="24.33302" height="25.70343"/></clipPath></defs><title>商城ICON</title><g class="cls-2"><path class="cls-3" d="M27.414,30.34151H.9028A.13878.13878,0,0,1,.764,30.203L.70829,3.89061a.13881.13881,0,0,1,.13878-.139H27.414a.13877.13877,0,0,1,.13878.13878v26.3124A.13877.13877,0,0,1,27.414,30.34151ZM1.04131,30.064h26.234V4.02912H.98612Z"/><path class="cls-4" d="M6.109,6.888a.63838.63838,0,1,1,.63838-.63838A.63913.63913,0,0,1,6.109,6.888Zm0-1.11023a.47185.47185,0,1,0,.47185.47185A.47241.47241,0,0,0,6.109,5.77773Z"/><path class="cls-4" d="M8.1627,6.888a.63838.63838,0,1,1,.63838-.63838A.63913.63913,0,0,1,8.1627,6.888Zm0-1.11023a.47185.47185,0,1,0,.47185.47185A.47241.47241,0,0,0,8.1627,5.77773Z"/><path class="cls-4" d="M10.21641,6.888a.63838.63838,0,1,1,.63838-.63838A.63913.63913,0,0,1,10.21641,6.888Zm0-1.11023a.47185.47185,0,1,0,.47185.47185A.47241.47241,0,0,0,10.21641,5.77773Z"/><path class="cls-4" d="M18.09967,6.888a.63838.63838,0,1,1,.63838-.63838A.63913.63913,0,0,1,18.09967,6.888Zm0-1.11023a.47185.47185,0,1,0,.47185.47185A.47241.47241,0,0,0,18.09967,5.77773Z"/><path class="cls-4" d="M20.15338,6.888a.63838.63838,0,1,1,.63838-.63838A.63913.63913,0,0,1,20.15338,6.888Zm0-1.11023a.47185.47185,0,1,0,.47185.47185A.47241.47241,0,0,0,20.15338,5.77773Z"/><path class="cls-4" d="M22.20708,6.888a.63838.63838,0,1,1,.63838-.63838A.63913.63913,0,0,1,22.20708,6.888Zm0-1.11023a.47185.47185,0,1,0,.47185.47185A.47241.47241,0,0,0,22.20708,5.77773Z"/><rect class="cls-5" x="11.73784" y="5.58777" width="4.78543" height="1.3236"/><path d="M16.52324,6.99464H11.73782a.08329.08329,0,0,1-.08327-.08327V5.58777a.08329.08329,0,0,1,.08327-.08327h4.78542a.08329.08329,0,0,1,.08327.08327v1.3236A.08329.08329,0,0,1,16.52324,6.99464Zm-4.70215-.16653H16.44V5.671H11.82109Z"/><rect class="cls-4" x="0.85712" y="8.47163" width="26.55691" height="0.33307"/><rect class="cls-4" x="0.87482" y="18.62703" width="26.53921" height="0.33307"/><path class="cls-4" d="M24.67994,11.75143H3.69664a.13877.13877,0,0,1-.13878-.13878v-1.468a.13877.13877,0,0,1,.13878-.13878h20.9833a.13877.13877,0,0,1,.13878.13878v1.468A.13877.13877,0,0,1,24.67994,11.75143ZM3.83542,11.47388H24.54116V10.28342H3.83542Z"/><rect class="cls-6" x="3.69665" y="11.61267" width="20.9833" height="6.03012"/><path d="M24.67994,17.78158H3.69664a.13877.13877,0,0,1-.13878-.13878V11.61266a.13877.13877,0,0,1,.13878-.13878h20.9833a.13877.13877,0,0,1,.13878.13878V17.6428A.13877.13877,0,0,1,24.67994,17.78158ZM3.83542,17.504H24.54116V11.75143H3.83542Z"/><rect class="cls-6" x="3.69665" y="21.87604" width="20.9833" height="6.03012"/><path d="M24.67994,28.04495H3.69664a.13877.13877,0,0,1-.13878-.13878V21.876a.13877.13877,0,0,1,.13878-.13878h20.9833a.13877.13877,0,0,1,.13878.13878v6.03014A.13877.13877,0,0,1,24.67994,28.04495ZM3.83542,27.76739H24.54116V22.01481H3.83542Z"/><path class="cls-4" d="M24.67994,22.01481H3.69664a.13877.13877,0,0,1-.13878-.13878V20.408a.13877.13877,0,0,1,.13878-.13878h20.9833a.13877.13877,0,0,1,.13878.13878v1.468A.13877.13877,0,0,1,24.67994,22.01481ZM3.83542,21.73725H24.54116V20.54679H3.83542Z"/></g><rect class="cls-7" x="24.76688" y="24.77681" width="8.49784" height="4.17657"/><circle class="cls-8" cx="26.1765" cy="26.86978" r="0.49722"/><circle class="cls-8" cx="27.97479" cy="26.86978" r="0.49722"/><circle class="cls-8" cx="29.99213" cy="26.86978" r="0.49722"/><circle class="cls-8" cx="31.8501" cy="26.86978" r="0.49722"/><path d="M28.93671,30.403H7.45754a.20533.20533,0,0,1-.20532-.20532V26.5514a.20521.20521,0,0,1,.15865-.1999l12.98955-3.03314L20.3925,2.40185a.20537.20537,0,0,1,.20532-.20542h16.836a.20533.20533,0,0,1,.20532.20532V23.56659a.20532.20532,0,1,1-.41063,0V2.60707H20.80324l.00792,20.87411a.20527.20527,0,0,1-.1586.2L7.66286,26.71431v3.278H28.93671a.20532.20532,0,0,1,0,.41063Z"/><path d="M50.59765,30.403H28.73349c-.11339,0,.17966-.09193.17966-.20532s-.23958-.20532-.1262-.20532H50.39233v-3.277l-12.9885-2.94852a.20529.20529,0,0,1,.09083-.40041l13.1484,2.98481a.20535.20535,0,0,1,.1599.2002v3.64628A.20533.20533,0,0,1,50.59765,30.403Z"/><path d="M27.18607,17.54548l.001-.00024a.12048.12048,0,0,0,.05706-.03555.15144.15144,0,0,0,.03889-.10781.15867.15867,0,0,0-.04737-.12035.17821.17821,0,0,0-.1272-.04564h-.38484V17.308h.32652c.066,0,.07885.03764.07885.08157a.07275.07275,0,0,1-.07171.08032h-.33367v.34658h.152l.00021-.26286h.12291l.114.237.00092.00157a.05835.05835,0,0,0,.04719.02424h.13877l-.13-.26754Z"/><path d="M27.86543,17.28044a.178.178,0,0,0-.12725-.04454h-.22492a.17776.17776,0,0,0-.12723.04454.15492.15492,0,0,0-.04693.10721l-.00036.00468,0,.24776H27.3384l.00028.01541a.15775.15775,0,0,0,.04727.11646.17793.17793,0,0,0,.12722.04454h.225a.17812.17812,0,0,0,.12728-.04456.15817.15817,0,0,0,.04721-.11639l.00005-.26453-.00044-.00372A.15509.15509,0,0,0,27.86543,17.28044Zm-.10674.09693V17.675c0,.04393-.01288.06934-.07881.06934h-.10836c-.06462,0-.07783-.02372-.07883-.06456v-.30246c0-.04392.01291-.06935.07885-.06935h.10834C27.74581,17.308,27.75869,17.33344,27.75869,17.37736Z"/><path d="M29.79075,17.2359h-.0796l-.19394.361-.176-.33056a.05623.05623,0,0,0-.04893-.0304h-.09377v.58059h.07423a.02833.02833,0,0,0,.02709-.02922v-.316l.19327.34526.20092-.36528v.36528h.15468v-.51533a.07129.07129,0,0,0-.00894-.03488A.05652.05652,0,0,0,29.79075,17.2359Z"/><path d="M28.4591,17.50686a.12286.12286,0,0,0,.071-.13613.13438.13438,0,0,0-.09265-.119.20191.20191,0,0,0-.06773-.01528l-.01151-.00058-.04033-.00029.00054.00029h-.34359v.58059h.37212l.00892-.00018H28.358c.089,0,.193-.04281.193-.16348A.15223.15223,0,0,0,28.4591,17.50686Zm-.14691-.05427h-.1967V17.308H28.313a.07119.07119,0,0,1,.06531.07275A.06957.06957,0,0,1,28.31218,17.45259Zm-.1967.12048h.20035a.08412.08412,0,0,1,.06867.08987.07812.07812,0,0,1-.06207.08145h-.207Z"/><path d="M29.00984,17.81649h.15637l-.24926-.54715-.00105-.00183a.05665.05665,0,0,0-.049-.03059h-.035l-.27.57956h.08415l.00136-.00036a.0537.0537,0,0,0,.03491-.02853l.00563-.0126.02709-.05826h.25036Zm-.16626-.37574.0733.166h-.15Z"/><path d="M31.02157,17.49233a.06183.06183,0,0,0-.0154-.04452l.00018-.00015-.06555-.06243v-.04749h.08076v-.05845h-.08076l0-.0143a.0301.0301,0,0,0-.02781-.02908h-.072v.04339h-.07539v.05845H30.841v.09a.06034.06034,0,0,1-.01278.03516l-.06261.07394v.10312l.07539-.09121v.23622a.0311.0311,0,0,0,.02781.03154h.072v-.31181l.08076.07866Z"/><path d="M30.57513,17.2716l-.00738.00667h-.19588v-.00834l-.00023-.00879-.00087.00052a.02979.02979,0,0,0-.02717-.02575h-.09692v.04237h-.21729v.06383h.21729v.10278l-.25456.00038v.06544h.22021c-.07024.03446-.12979.06223-.17038.08114l-.04711.0224-.00273.00145v.09218l.0074-.00357.08474-.041v.06866l.00015.00514v.00532c0,.03889.02245.07351.05373.07351h.42976c.06095,0,.08888-.03053.08888-.07151h-.09391l-.34585-.00021a.02079.02079,0,0,1-.01761-.02087l.00024-.11686c.07214-.03609.13059-.06654.18357-.09574h.27491c.02247-.001.03589-.01241.036-.03107v-.03475h-.19924a.6152.6152,0,0,0,.19911-.18912l-.08173,0A.05377.05377,0,0,0,30.57513,17.2716Zm-.08474.0705a1.22342,1.22342,0,0,1-.11851.085v-.085Z"/><path d="M30.27994,17.595l-.00083,0a.02844.02844,0,0,0-.02421.02687V17.661h.246a.133.133,0,0,0,.0969-.03966l.02046-.02631Z"/><path d="M31.38177,17.65474a.34326.34326,0,0,0,.106-.21676l.00026-.02248a.0311.0311,0,0,0-.02719-.03226H31.1451V17.308h.34729v-.04a.0313.0313,0,0,0-.02652-.03213l-.4152-.00007.00005.32114a.49791.49791,0,0,1-.10744.25951l.071.00012.00079,0a.07327.07327,0,0,0,.0521-.03231.35635.35635,0,0,0,.07793-.21216v-.04572l.10938.13263a2.26054,2.26054,0,0,1-.20595.15748h.10569a.15977.15977,0,0,0,.05749-.01759.73242.73242,0,0,0,.09669-.07447l.05682.06914.00738.00819a.04006.04006,0,0,0,.02977.01461l.11093.00032Zm-.14621-.15943-.09045.00031v-.04873h.23237c.00229,0,.00612.001.00612.00784v.00572a.22009.22009,0,0,1-.05629.12726l-.01491-.01881-.03539-.04343-.01353-.01622a.036.036,0,0,0-.02788-.01394Z"/><path class="cls-4" d="M26.1815,27.46657a.60148.60148,0,1,1,.60148-.60148A.60217.60217,0,0,1,26.1815,27.46657Zm0-1.04605a.44457.44457,0,1,0,.44457.44457A.44509.44509,0,0,0,26.1815,26.42052Z"/><path class="cls-4" d="M27.97479,27.46657a.60148.60148,0,1,1,.60148-.60148A.60217.60217,0,0,1,27.97479,27.46657Zm0-1.04605a.44457.44457,0,1,0,.44457.44457A.44509.44509,0,0,0,27.97479,26.42052Z"/><path class="cls-4" d="M29.99213,27.46657a.60148.60148,0,1,1,.60148-.60148A.60217.60217,0,0,1,29.99213,27.46657Zm0-1.04605a.44457.44457,0,1,0,.44457.44457A.44509.44509,0,0,0,29.99213,26.42052Z"/><path class="cls-4" d="M31.8501,27.46657a.60148.60148,0,1,1,.60148-.60148A.60217.60217,0,0,1,31.8501,27.46657Zm0-1.04605a.44457.44457,0,1,0,.44457.44457A.44509.44509,0,0,0,31.8501,26.42052Z"/><path d="M37.43381,30.403h-16.836a.1619.1619,0,0,1-.154-.16872V23.496a.177.177,0,0,1,.04541-.11962.13591.13591,0,0,1,.10938-.0491l16.836.09348a.162.162,0,0,1,.15319.16872v6.64478A.1619.1619,0,0,1,37.43381,30.403Zm-16.682-.33744h16.528V23.75734l-16.528-.09172Z"/><g class="cls-9"><path d="M61.37709,30.4288H13.9496a.23917.23917,0,0,1-.23916-.23916V5.0003a.23917.23917,0,0,1,.23916-.23916H61.37709a.23917.23917,0,0,1,.23916.23916V30.18964A.23917.23917,0,0,1,61.37709,30.4288Zm-47.18833-.47832H61.13793V5.23946H14.18876Z"/><path d="M25.69168,20.051a4.69387,4.69387,0,1,1,4.69387-4.69387A4.69911,4.69911,0,0,1,25.69168,20.051Zm0-9.14857a4.45471,4.45471,0,1,0,4.45471,4.45471A4.45975,4.45975,0,0,0,25.69168,10.90246Z"/><path d="M31.69883,15.527H27.60146a.17937.17937,0,0,1,0-.35874h4.09737a.17937.17937,0,1,1,0,.35874Z"/><path d="M23.77233,15.527H19.675a.17937.17937,0,0,1,0-.35874h4.09737a.17937.17937,0,0,1,0,.35874Z"/><path d="M25.69168,21.55326a.17942.17942,0,0,1-.17937-.17937V17.27465a.17937.17937,0,1,1,.35874,0v4.09924A.17942.17942,0,0,1,25.69168,21.55326Z"/><path d="M25.69168,13.61905a.17942.17942,0,0,1-.17937-.17937V9.34044a.17937.17937,0,1,1,.35874,0v4.09924A.17942.17942,0,0,1,25.69168,13.61905Z"/><path d="M25.68981,18.27742a2.92025,2.92025,0,1,1,2.92025-2.92025A2.92355,2.92355,0,0,1,25.68981,18.27742Zm0-5.60134a2.68109,2.68109,0,1,0,2.68109,2.68109A2.68411,2.68411,0,0,0,25.68981,12.67607Z"/><path d="M49.64459,20.051a4.69387,4.69387,0,1,1,4.69387-4.69387A4.69912,4.69912,0,0,1,49.64459,20.051Zm0-9.14857a4.45471,4.45471,0,1,0,4.45471,4.45471A4.4598,4.4598,0,0,0,49.64459,10.90246Z"/><path d="M55.65173,15.527H51.55437a.17937.17937,0,0,1,0-.35874h4.09737a.17937.17937,0,0,1,0,.35874Z"/><path d="M47.72524,15.527H43.62787a.17937.17937,0,1,1,0-.35874h4.09737a.17937.17937,0,0,1,0,.35874Z"/><path d="M49.64459,21.55326a.17942.17942,0,0,1-.17937-.17937V17.27465a.17937.17937,0,0,1,.35874,0v4.09924A.17942.17942,0,0,1,49.64459,21.55326Z"/><path d="M49.64459,13.61905a.17942.17942,0,0,1-.17937-.17937V9.34044a.17937.17937,0,0,1,.35874,0v4.09924A.17942.17942,0,0,1,49.64459,13.61905Z"/><path d="M49.64272,18.27742A2.92025,2.92025,0,1,1,52.563,15.35716,2.92355,2.92355,0,0,1,49.64272,18.27742Zm0-5.60134a2.68109,2.68109,0,1,0,2.68109,2.68109A2.68407,2.68407,0,0,0,49.64272,12.67607Z"/></g></svg>