<svg id="图层_1" data-name="图层 1" xmlns="http://www.w3.org/2000/svg" viewBox="0 0 62 33"><defs><style>.cls-1{fill:#030000;}.cls-2{fill:#d1d1d1;}.cls-3{fill:#c0bfbf;}</style></defs><title>商城ICON</title><path class="cls-1" d="M37.65417,4.37758a.80816.80816,0,1,1,.80816-.80816A.80908.80908,0,0,1,37.65417,4.37758Zm0-1.4055a.59734.59734,0,1,0,.59734.59734A.598.598,0,0,0,37.65417,2.97208Z"/><path class="cls-1" d="M24.34154,4.37758a.80816.80816,0,1,1,.80816-.80816A.80908.80908,0,0,1,24.34154,4.37758Zm0-1.4055a.59734.59734,0,1,0,.59734.59734A.598.598,0,0,0,24.34154,2.97208Z"/><rect class="cls-1" x="15.02417" y="6.41027" width="31.95165" height="0.42165"/><path class="cls-1" d="M46.97582,32.41726H15.02418a.17567.17567,0,0,1-.17569-.17569V.75843a.17567.17567,0,0,1,.17569-.17569H46.97582a.17567.17567,0,0,1,.17569.17569V32.24157A.17567.17567,0,0,1,46.97582,32.41726Zm-31.77595-.35137H46.80013V.93411H15.19987Z"/><path d="M44.01841,9.92346H18.0167a.17567.17567,0,0,1-.17569-.17569V8.8342a.17567.17567,0,0,1,.17569-.17569H44.01841a.17567.17567,0,0,1,.17569.17569v.91357A.17567.17567,0,0,1,44.01841,9.92346Zm-25.826-.35137H43.84272v-.5622H18.19238Z"/><rect class="cls-2" x="20.31822" y="11.59249" width="21.32843" height="15.81185"/><path d="M41.64663,27.58H20.3182a.17567.17567,0,0,1-.17569-.17569V11.59249a.17567.17567,0,0,1,.17569-.17569H41.64663a.17567.17567,0,0,1,.17569.17569V27.40434A.17567.17567,0,0,1,41.64663,27.58Zm-21.15274-.35137H41.47094V11.76818H20.49389Z"/><rect class="cls-3" x="27.22858" y="2.22251" width="7.51941" height="2.69387"/><path d="M34.748,5.02179H27.22858a.10542.10542,0,0,1-.10541-.10541V2.22253a.10542.10542,0,0,1,.10541-.10541H34.748a.10542.10542,0,0,1,.10541.10541V4.91638A.10542.10542,0,0,1,34.748,5.02179ZM27.334,4.811h7.30859v-2.483H27.334Z"/></svg>