<svg id="图层_1" data-name="图层 1" xmlns="http://www.w3.org/2000/svg" viewBox="0 0 62 33"><defs><style>.cls-1{fill:#d1d1d1;stroke:#030000;stroke-linecap:round;stroke-linejoin:round;stroke-width:0.37px;}.cls-2{fill:#fff;}.cls-3{fill:#030000;}</style></defs><title>商城ICON</title><rect class="cls-1" x="26.85993" y="24.96419" width="8.49784" height="4.17657"/><circle class="cls-2" cx="28.26955" cy="27.05716" r="0.49722"/><circle class="cls-2" cx="30.06784" cy="27.05716" r="0.49722"/><circle class="cls-2" cx="32.08518" cy="27.05716" r="0.49722"/><circle class="cls-2" cx="33.94315" cy="27.05716" r="0.49722"/><path d="M31.02976,30.59038H9.55059a.20533.20533,0,0,1-.20532-.20532V26.73879a.20521.20521,0,0,1,.15865-.1999l12.98955-3.03314L22.48555,2.58923a.20537.20537,0,0,1,.20532-.20542h16.836a.20533.20533,0,0,1,.20532.20532V23.754a.20532.20532,0,0,1-.41063,0V2.79445H22.89629l.00792,20.87411a.20527.20527,0,0,1-.1586.2L9.7559,26.9017v3.278H31.02976a.20532.20532,0,0,1,0,.41063Z"/><path d="M52.69069,30.59038H30.82654c-.11339,0,.17966-.09193.17966-.20532s-.23958-.20532-.1262-.20532H52.48538v-3.277l-12.9885-2.94852a.20529.20529,0,1,1,.09083-.40041l13.1484,2.98481a.20535.20535,0,0,1,.1599.2002v3.64628A.20533.20533,0,0,1,52.69069,30.59038Z"/><path d="M28.70663,17.73859l.0013-.00032a.15617.15617,0,0,0,.074-.04608.19631.19631,0,0,0,.05041-.13975.20568.20568,0,0,0-.0614-.156.231.231,0,0,0-.16489-.05916h-.49885v.09348h.42325c.08549,0,.10222.04879.10222.10573a.09431.09431,0,0,1-.09295.10412h-.43252v.44926h.19707l.00027-.34073h.15932l.14776.30727.0012.002a.07563.07563,0,0,0,.06117.03142h.17988l-.16851-.3468Z"/><path d="M29.58725,17.395a.23078.23078,0,0,0-.16495-.05773h-.29155a.23043.23043,0,0,0-.16492.05773.20082.20082,0,0,0-.06083.139l-.00047.00606,0,.32116h-.0004l.00037.02a.20448.20448,0,0,0,.06127.151.23064.23064,0,0,0,.16491.05774h.29166a.23089.23089,0,0,0,.165-.05776.205.205,0,0,0,.0612-.15087l.00007-.3429-.00057-.00482A.201.201,0,0,0,29.58725,17.395Zm-.13836.12564v.38587c0,.05694-.0167.08989-.10215.08989h-.14046c-.08376,0-.10088-.03075-.10219-.08369v-.39207c0-.05694.01673-.08989.10222-.08989h.14043C29.4322,17.43078,29.44889,17.46373,29.44889,17.52067Z"/><path d="M32.083,17.33729h-.10319l-.2514.4679-.22809-.42849a.07289.07289,0,0,0-.06343-.03941h-.12154v.75259h.09622a.03672.03672,0,0,0,.03512-.03788v-.40966l.25053.44754.26044-.4735v.4735h.2005v-.668a.09242.09242,0,0,0-.01159-.04521A.07327.07327,0,0,0,32.083,17.33729Z"/><path d="M30.3568,17.68853a.15926.15926,0,0,0,.092-.17646.17419.17419,0,0,0-.1201-.15422.26173.26173,0,0,0-.08779-.01981l-.01492-.00075-.05228-.00038.0007.00038H29.729v.75259h.48236l.01156-.00024h.0028c.1154,0,.25017-.05549.25017-.21191A.19733.19733,0,0,0,30.3568,17.68853Zm-.19044-.07035h-.255v-.1874h.256a.09229.09229,0,0,1,.08466.09431A.09018.09018,0,0,1,30.16636,17.61818Zm-.255.15618h.2597a.109.109,0,0,1,.089.11649.10126.10126,0,0,1-.08046.10558h-.26826Z"/><path d="M31.07071,18.08988h.2027l-.3231-.70924-.00137-.00237a.07344.07344,0,0,0-.06347-.03965h-.04535l-.35.75126h.10908l.00176-.00047a.06961.06961,0,0,0,.04525-.037l.00729-.01634.03512-.07551h.32453Zm-.21552-.48706.095.21523h-.1945Z"/><path d="M33.67843,17.66969a.08014.08014,0,0,0-.02-.05771l.00024-.0002-.085-.08093v-.06157h.10468v-.07576h-.10468l0-.01854a.039.039,0,0,0-.03605-.0377h-.09332v.05624h-.09772v.07576h.09772v.11664a.07821.07821,0,0,1-.01656.04558l-.08116.09585V17.861l.09772-.11823v.3062a.04031.04031,0,0,0,.03605.04088h.09334V17.6857l.10468.102Z"/><path d="M33.09973,17.38357l-.00956.00865h-.25391V17.3814L32.836,17.37l-.00113.00067a.03861.03861,0,0,0-.03522-.03338H32.674v.05492h-.28166V17.475H32.674v.13323l-.33.0005v.08482h.28545c-.091.04466-.16824.08066-.22085.10518-.032.015-.05321.02482-.06107.029l-.00353.00188v.11949l.00959-.00463.10985-.05321v.089l.0002.00667v.00689c0,.05041.0291.09529.06964.09529h.55708c.079,0,.11522-.03958.11522-.09269h-.12174l-.44831-.00027a.027.027,0,0,1-.02283-.02705l.00031-.15149c.09351-.04678.16928-.08626.23795-.12411h.35635c.02912-.00135.04652-.01609.04661-.04028v-.045h-.25827a.79745.79745,0,0,0,.2581-.24515l-.10595,0A.06969.06969,0,0,0,33.09973,17.38357Zm-.10985.09139a1.58587,1.58587,0,0,1-.15362.11022V17.475Z"/><path d="M32.71708,17.80279l-.00107,0a.03687.03687,0,0,0-.03138.03483v.05072h.31894a.17238.17238,0,0,0,.12561-.0514l.02652-.0341Z"/><path d="M34.14533,17.88022a.445.445,0,0,0,.13747-.281l.00034-.02914a.04032.04032,0,0,0-.03525-.04181h-.40933v-.09752h.45017v-.05184a.04058.04058,0,0,0-.03438-.04164l-.5382-.00009.00007.41628a.64542.64542,0,0,1-.13927.3364l.092.00016L33.67,18.09a.095.095,0,0,0,.06753-.04188.46192.46192,0,0,0,.101-.275v-.05927l.14179.17193a2.93023,2.93023,0,0,1-.267.20414h.137a.20711.20711,0,0,0,.07453-.02281.9494.9494,0,0,0,.12534-.09653l.07365.08962.00956.01061a.05193.05193,0,0,0,.03859.01894l.14379.00042Zm-.18953-.20666-.11724.0004v-.06317h.30121c.003,0,.00793.00133.00793.01016v.00742a.2853.2853,0,0,1-.073.165l-.01932-.02439-.04587-.05629-.01753-.021a.04673.04673,0,0,0-.03614-.01808Z"/><path class="cls-3" d="M28.27455,27.654a.60148.60148,0,1,1,.60148-.60148A.60217.60217,0,0,1,28.27455,27.654Zm0-1.04605a.44457.44457,0,1,0,.44457.44457A.44509.44509,0,0,0,28.27455,26.6079Z"/><path class="cls-3" d="M30.06784,27.654a.60148.60148,0,1,1,.60148-.60148A.60217.60217,0,0,1,30.06784,27.654Zm0-1.04605a.44457.44457,0,1,0,.44457.44457A.44509.44509,0,0,0,30.06784,26.6079Z"/><path class="cls-3" d="M32.08518,27.654a.60148.60148,0,1,1,.60148-.60148A.60217.60217,0,0,1,32.08518,27.654Zm0-1.04605a.44457.44457,0,1,0,.44457.44457A.44509.44509,0,0,0,32.08518,26.6079Z"/><path class="cls-3" d="M33.94315,27.654a.60148.60148,0,1,1,.60148-.60148A.60217.60217,0,0,1,33.94315,27.654Zm0-1.04605a.44457.44457,0,1,0,.44457.44457A.44509.44509,0,0,0,33.94315,26.6079Z"/><path d="M39.52685,30.59038h-16.836a.1619.1619,0,0,1-.154-.16872V23.6834a.177.177,0,0,1,.04541-.11962.13591.13591,0,0,1,.10938-.0491l16.836.09348a.162.162,0,0,1,.15319.16872v6.64478A.1619.1619,0,0,1,39.52685,30.59038Zm-16.682-.33744h16.528V23.94472l-16.528-.09172Z"/></svg>