<svg id="图层_1" data-name="图层 1" xmlns="http://www.w3.org/2000/svg" viewBox="0 0 44 42"><defs><style>.cls-1{fill:#fff;}</style></defs><title>商城ICON</title><path class="cls-1" d="M34.48951,41.4375H9.51049A9.0837,9.0837,0,0,1,.42717,32.35418V9.64582A9.0837,9.0837,0,0,1,9.51049.5625h24.979a9.0837,9.0837,0,0,1,9.08332,9.08332V32.35418a9.0837,9.0837,0,0,1-9.08332,9.08332Zm6.81265-30.42929a8.17558,8.17558,0,0,0-8.175-8.17482H10.87288a8.17553,8.17553,0,0,0-8.17482,8.17482V30.99157a8.17558,8.17558,0,0,0,8.17482,8.175H33.12712a8.17563,8.17563,0,0,0,8.175-8.175Zm-24.97924.954L29.948,21l-13.625,9.03781Zm0,0"/></svg>